<svg width="52" height="43" viewBox="0 0 52 43" fill="none" xmlns="http://www.w3.org/2000/svg">
<path d="M51.2695 21.0503C51.2695 22.2301 50.3928 23.2052 49.2553 23.3595L48.9391 23.3807L7.97323 23.3789L22.773 38.1182C23.685 39.0263 23.6882 40.5018 22.7801 41.4139C21.9545 42.243 20.66 42.321 19.7462 41.6461L19.4844 41.421L0.685551 22.703C0.56533 22.5833 0.460908 22.4537 0.372284 22.3169C0.347252 22.2757 0.321771 22.2336 0.297615 22.1906C0.275395 22.1538 0.255317 22.1155 0.236375 22.0768C0.210067 22.0206 0.184362 21.9624 0.161024 21.9031C0.142062 21.8574 0.126228 21.8129 0.111786 21.7681C0.0946166 21.7125 0.0779345 21.6532 0.0635853 21.5931C0.0529175 21.5511 0.0444688 21.5106 0.0370993 21.4701C0.0267361 21.4097 0.0179149 21.3472 0.0116209 21.284C0.00618636 21.2358 0.00291525 21.188 0.00110715 21.1402C0.000639818 21.1112 5.22137e-05 21.0808 5.22137e-05 21.0503L0.00121975 20.96C0.00300611 20.9143 0.00612989 20.8686 0.0105956 20.823L5.22137e-05 21.0503C5.22137e-05 20.9033 0.013674 20.7594 0.0397248 20.6199C0.0457662 20.5865 0.0529651 20.5523 0.0609361 20.5183C0.0774905 20.4481 0.0966214 20.3806 0.118649 20.3143C0.129461 20.2814 0.142056 20.2463 0.155519 20.2114C0.182752 20.1413 0.212352 20.0744 0.244915 20.0093C0.260043 19.9787 0.276987 19.9466 0.294728 19.9149C0.323851 19.8631 0.353852 19.814 0.385577 19.766C0.40796 19.7321 0.432746 19.6968 0.458628 19.662L0.478796 19.6351C0.541582 19.5531 0.609695 19.4754 0.682618 19.4024L0.685415 19.4003L19.4842 0.679159C20.3962 -0.229044 21.8717 -0.225989 22.7799 0.685983C23.6056 1.51505 23.6781 2.80988 22.9993 3.72079L22.7731 3.9817L7.97945 18.718L48.9391 18.7199C50.2262 18.7199 51.2695 19.7633 51.2695 21.0503Z" fill="black"/>
</svg>
