<svg width="90" height="90" viewBox="0 0 90 90" fill="none" xmlns="http://www.w3.org/2000/svg">
<rect width="90" height="90" rx="45" fill="#FFF1CD"/>
<rect x="13" y="13" width="64" height="64" rx="32" fill="#FEBF29"/>
<path d="M31.5834 44.4987H36.75M52.25 44.4987H57.4167M44.5 57.4154V52.2487M44.5 36.7487V31.582M54.8334 44.4987C54.8334 50.2056 50.207 54.832 44.5 54.832C38.7931 54.832 34.1667 50.2056 34.1667 44.4987C34.1667 38.7918 38.7931 34.1654 44.5 34.1654C50.207 34.1654 54.8334 38.7918 54.8334 44.4987ZM48.375 44.4987C48.375 46.6388 46.6401 48.3737 44.5 48.3737C42.3599 48.3737 40.625 46.6388 40.625 44.4987C40.625 42.3586 42.3599 40.6237 44.5 40.6237C46.6401 40.6237 48.375 42.3586 48.375 44.4987Z" stroke="black" stroke-width="1.5" stroke-miterlimit="10" stroke-linecap="round" stroke-linejoin="round"/>
</svg>
