<svg width="40" height="40" viewBox="0 0 40 40" fill="none" xmlns="http://www.w3.org/2000/svg">
<path fill-rule="evenodd" clip-rule="evenodd" d="M20 0C31.028 0 40 8.972 40 20C40 31.028 31.028 40 20 40C8.972 40 0 31.028 0 20C0 8.972 8.972 0 20 0ZM20 3C10.626 3 3 10.626 3 20C3 29.374 10.626 37 20 37C29.374 37 37 29.374 37 20C37 10.626 29.374 3 20 3ZM19.3224 10.1908C20.1524 10.1908 20.8224 10.8628 20.8224 11.6908V20.5348L27.6324 24.5948C28.3424 25.0208 28.5764 25.9408 28.1524 26.6528C27.8704 27.1228 27.3724 27.3848 26.8624 27.3848C26.6004 27.3848 26.3364 27.3168 26.0944 27.1748L18.5544 22.6768C18.1024 22.4048 17.8224 21.9148 17.8224 21.3868V11.6908C17.8224 10.8628 18.4944 10.1908 19.3224 10.1908Z" fill="#757575"/>
</svg>
