<svg width="90" height="125" viewBox="0 0 90 125" fill="none" xmlns="http://www.w3.org/2000/svg">
<rect width="90" height="90" rx="45" fill="#FFF1CD"/>
<rect x="13" y="13" width="64" height="64" rx="32" fill="#FEBF29"/>
<path d="M31.5833 44.4987H36.75M52.25 44.4987H57.4166M44.5 57.4154V52.2487M44.5 36.7487V31.582M54.8333 44.4987C54.8333 50.2056 50.2069 54.832 44.5 54.832C38.793 54.832 34.1666 50.2056 34.1666 44.4987C34.1666 38.7918 38.793 34.1654 44.5 34.1654C50.2069 34.1654 54.8333 38.7918 54.8333 44.4987ZM48.375 44.4987C48.375 46.6388 46.6401 48.3737 44.5 48.3737C42.3599 48.3737 40.625 46.6388 40.625 44.4987C40.625 42.3586 42.3599 40.6237 44.5 40.6237C46.6401 40.6237 48.375 42.3586 48.375 44.4987Z" stroke="black" stroke-width="1.5" stroke-miterlimit="10" stroke-linecap="round" stroke-linejoin="round"/>
<line x1="46" y1="97" x2="46" y2="106" stroke="#9E9E9E" stroke-width="2"/>
<line x1="46" y1="116" x2="46" y2="125" stroke="#9E9E9E" stroke-width="2"/>
</svg>
