<svg width="90" height="221" viewBox="0 0 90 221" fill="none" xmlns="http://www.w3.org/2000/svg">
<rect y="131" width="90" height="90" rx="45" fill="#FFF1CD"/>
<rect x="13" y="144" width="64" height="64" rx="32" fill="#FEBF29"/>
<path d="M40.2974 162.405C43.5747 160.501 47.603 160.534 50.8496 162.492C54.0642 164.49 56.0179 168.056 55.9999 171.892C55.9249 175.703 53.8299 179.285 51.2112 182.054C49.6997 183.66 48.0089 185.079 46.1733 186.284C45.9842 186.393 45.7771 186.467 45.5622 186.5C45.3554 186.491 45.154 186.43 44.9761 186.322C42.1736 184.512 39.715 182.201 37.7185 179.501C36.0479 177.247 35.0988 174.524 35 171.702L35.0075 171.291C35.1439 167.607 37.1372 164.241 40.2974 162.405ZM46.8609 168.552C45.5286 167.986 43.9926 168.294 42.97 169.332C41.9474 170.37 41.64 171.933 42.1912 173.292C42.7425 174.651 44.0438 175.538 45.4874 175.538C46.4332 175.545 47.3423 175.166 48.0122 174.486C48.6821 173.806 49.0572 172.881 49.0539 171.918C49.0589 170.447 48.1932 169.118 46.8609 168.552Z" fill="#35383F"/>
<path opacity="0.4" d="M45.4999 191C49.6421 191 52.9999 190.328 52.9999 189.5C52.9999 188.672 49.6421 188 45.4999 188C41.3578 188 37.9999 188.672 37.9999 189.5C37.9999 190.328 41.3578 191 45.4999 191Z" fill="black"/>
<rect width="90" height="90" rx="45" fill="#FFF1CD"/>
<rect x="13" y="13" width="64" height="64" rx="32" fill="#FEBF29"/>
<path d="M31.5833 44.4987H36.75M52.25 44.4987H57.4166M44.5 57.4154V52.2487M44.5 36.7487V31.582M54.8333 44.4987C54.8333 50.2056 50.2069 54.832 44.5 54.832C38.793 54.832 34.1666 50.2056 34.1666 44.4987C34.1666 38.7918 38.793 34.1654 44.5 34.1654C50.2069 34.1654 54.8333 38.7918 54.8333 44.4987ZM48.375 44.4987C48.375 46.6388 46.6401 48.3737 44.5 48.3737C42.3599 48.3737 40.625 46.6388 40.625 44.4987C40.625 42.3586 42.3599 40.6237 44.5 40.6237C46.6401 40.6237 48.375 42.3586 48.375 44.4987Z" stroke="black" stroke-width="1.5" stroke-miterlimit="10" stroke-linecap="round" stroke-linejoin="round"/>
<line x1="46" y1="97" x2="46" y2="106" stroke="#9E9E9E" stroke-width="2"/>
<line x1="46" y1="116" x2="46" y2="125" stroke="#9E9E9E" stroke-width="2"/>
</svg>
