<svg width="42" height="39" viewBox="0 0 42 39" fill="none" xmlns="http://www.w3.org/2000/svg">
<path fill-rule="evenodd" clip-rule="evenodd" d="M29.2831 0C35.8971 0 41.2771 5.38 41.2771 11.996V26.35C41.2771 32.964 35.8971 38.346 29.2831 38.346H11.9951C5.38115 38.346 -0.000854492 32.964 -0.000854492 26.35V11.996C-0.000854492 5.38 5.38115 0 11.9951 0H29.2831ZM29.2831 3H11.9951C7.03515 3 2.99915 7.036 2.99915 11.996V26.35C2.99915 31.31 7.03515 35.346 11.9951 35.346H29.2831C34.2431 35.346 38.2771 31.31 38.2771 26.35V25.79L31.6813 25.7912C27.8873 25.7912 24.7993 22.7052 24.7973 18.9132C24.7973 15.1172 27.8853 12.0292 31.6813 12.0272L38.2771 12.026V11.996C38.2771 7.036 34.2431 3 29.2831 3ZM38.2771 15.026L31.6813 15.0272C29.5393 15.0292 27.7973 16.7712 27.7973 18.9112C27.7973 21.0492 29.5413 22.7912 31.6813 22.7912L38.2771 22.79V15.026ZM32.5965 17.2872C33.4245 17.2872 34.0965 17.9592 34.0965 18.7872C34.0965 19.6152 33.4245 20.2872 32.5965 20.2872H31.9725C31.1445 20.2872 30.4725 19.6152 30.4725 18.7872C30.4725 17.9592 31.1445 17.2872 31.9725 17.2872H32.5965ZM21.3691 9.0762C22.1971 9.0762 22.8691 9.7482 22.8691 10.5762C22.8691 11.4042 22.1971 12.0762 21.3691 12.0762H10.5711C9.74315 12.0762 9.07115 11.4042 9.07115 10.5762C9.07115 9.7482 9.74315 9.0762 10.5711 9.0762H21.3691Z" fill="#757575"/>
</svg>
