<svg width="90" height="90" viewBox="0 0 90 90" fill="none" xmlns="http://www.w3.org/2000/svg">
<rect width="90" height="90" rx="45" fill="#FFF1CD"/>
<rect x="13" y="13" width="64" height="64" rx="32" fill="#FEBF29"/>
<path d="M40.2974 31.4052C43.5747 29.5009 47.603 29.5342 50.8496 31.4923C54.0642 33.4904 56.0179 37.0563 55.9999 40.8922C55.9249 44.7029 53.8299 48.285 51.2112 51.0541C49.6997 52.6596 48.0089 54.0792 46.1733 55.2841C45.9842 55.3934 45.7771 55.4666 45.5622 55.5C45.3554 55.4912 45.154 55.4301 44.9761 55.3222C42.1736 53.5119 39.715 51.2011 37.7185 48.5009C36.0479 46.247 35.0988 43.524 35 40.7016L35.0075 40.291C35.1439 36.607 37.1372 33.2414 40.2974 31.4052ZM46.8609 37.5522C45.5286 36.9859 43.9926 37.2935 42.97 38.3315C41.9474 39.3695 41.64 40.9331 42.1912 42.2922C42.7425 43.6513 44.0438 44.5378 45.4874 44.5378C46.4332 44.5446 47.3423 44.1657 48.0122 43.4857C48.6821 42.8057 49.0572 41.881 49.0539 40.9176C49.0589 39.4471 48.1932 38.1185 46.8609 37.5522Z" fill="#35383F"/>
<path opacity="0.4" d="M45.5 60C49.6421 60 53 59.3284 53 58.5C53 57.6716 49.6421 57 45.5 57C41.3579 57 38 57.6716 38 58.5C38 59.3284 41.3579 60 45.5 60Z" fill="black"/>
</svg>
