<svg width="90" height="235" viewBox="0 0 90 235" fill="none" xmlns="http://www.w3.org/2000/svg">
<rect y="145" width="90" height="90" rx="45" fill="#FFF1CD"/>
<rect x="13" y="158" width="64" height="64" rx="32" fill="#FEBF29"/>
<path d="M40.2974 176.405C43.5747 174.501 47.603 174.534 50.8496 176.492C54.0642 178.49 56.0179 182.056 55.9999 185.892C55.9249 189.703 53.8299 193.285 51.2112 196.054C49.6997 197.66 48.0089 199.079 46.1733 200.284C45.9842 200.393 45.7771 200.467 45.5622 200.5C45.3554 200.491 45.154 200.43 44.9761 200.322C42.1736 198.512 39.715 196.201 37.7185 193.501C36.0479 191.247 35.0988 188.524 35 185.702L35.0075 185.291C35.1439 181.607 37.1372 178.241 40.2974 176.405ZM46.8609 182.552C45.5286 181.986 43.9926 182.294 42.97 183.332C41.9474 184.37 41.64 185.933 42.1912 187.292C42.7425 188.651 44.0438 189.538 45.4874 189.538C46.4332 189.545 47.3423 189.166 48.0122 188.486C48.6821 187.806 49.0572 186.881 49.0539 185.918C49.0589 184.447 48.1932 183.118 46.8609 182.552Z" fill="#35383F"/>
<path opacity="0.4" d="M45.5 205C49.6421 205 53 204.328 53 203.5C53 202.672 49.6421 202 45.5 202C41.3579 202 38 202.672 38 203.5C38 204.328 41.3579 205 45.5 205Z" fill="black"/>
<rect width="90" height="90" rx="45" fill="#FFF1CD"/>
<rect x="13" y="13" width="64" height="64" rx="32" fill="#FEBF29"/>
<path d="M31.5833 44.4987H36.7499M52.2499 44.4987H57.4166M44.4999 57.4154V52.2487M44.4999 36.7487V31.582M54.8333 44.4987C54.8333 50.2056 50.2069 54.832 44.4999 54.832C38.793 54.832 34.1666 50.2056 34.1666 44.4987C34.1666 38.7918 38.793 34.1654 44.4999 34.1654C50.2069 34.1654 54.8333 38.7918 54.8333 44.4987ZM48.3749 44.4987C48.3749 46.6388 46.64 48.3737 44.4999 48.3737C42.3598 48.3737 40.6249 46.6388 40.6249 44.4987C40.6249 42.3586 42.3598 40.6237 44.4999 40.6237C46.64 40.6237 48.3749 42.3586 48.3749 44.4987Z" stroke="black" stroke-width="1.5" stroke-miterlimit="10" stroke-linecap="round" stroke-linejoin="round"/>
<line x1="46" y1="97" x2="46" y2="106" stroke="#9E9E9E" stroke-width="2"/>
<line x1="46" y1="116" x2="46" y2="125" stroke="#9E9E9E" stroke-width="2"/>
<line x1="46" y1="131" x2="46" y2="140" stroke="#9E9E9E" stroke-width="2"/>
</svg>
