<svg width="56" height="56" viewBox="0 0 56 56" fill="none" xmlns="http://www.w3.org/2000/svg">
<path d="M16.5737 14.582C15.2179 14.582 14.0409 15.5162 13.7331 16.8366C13.7258 16.8679 13.7177 16.899 13.7087 16.9299L11.0137 26.1577C10.8772 26.6253 10.5518 27.0149 10.116 27.2326L9.3204 27.6301C7.54088 28.519 6.41663 30.3374 6.41663 32.3266V40.832C6.41663 41.7985 7.20013 42.582 8.16663 42.582H10.5006C11.4671 42.582 12.2506 43.3655 12.2506 44.332V45.499C12.2506 47.1097 13.5563 48.4154 15.1669 48.4154C16.7776 48.4154 18.0833 47.1097 18.0833 45.499V44.332C18.0833 43.3655 18.8668 42.582 19.8333 42.582H36.1666C37.1331 42.582 37.9166 43.3655 37.9166 44.332V45.4987C37.9166 47.1086 39.2216 48.4154 40.837 48.4154C42.4478 48.4154 43.7536 47.1095 43.7536 45.4987V44.332C43.7536 43.3655 44.5371 42.582 45.5036 42.582H47.8333C48.7998 42.582 49.5833 41.7985 49.5833 40.832V32.3249C49.5833 30.3363 48.4598 28.5185 46.6812 27.6292L45.8876 27.2323C45.4461 27.0115 45.1183 26.6145 44.9851 26.1391L42.4126 16.9535C42.4042 16.9235 42.3966 16.8934 42.3899 16.863C42.0922 15.5299 40.9092 14.582 39.5433 14.582H16.5737ZM10.3365 15.9914C11.0318 13.1134 13.6084 11.082 16.5737 11.082H39.5433C42.5315 11.082 45.1216 13.1442 45.7945 16.051L48.1464 24.4486L48.2465 24.4987C51.2108 25.9809 53.0833 29.0107 53.0833 32.3249V40.832C53.0833 43.7315 50.7328 46.082 47.8333 46.082H47.2275C46.9328 49.3525 44.1841 51.9154 40.837 51.9154C37.4871 51.9154 34.7375 49.3532 34.4428 46.082H21.5572C21.2626 49.3525 18.5141 51.9154 15.1669 51.9154C11.8198 51.9154 9.07128 49.3525 8.7767 46.082H8.16663C5.26713 46.082 2.91663 43.7315 2.91663 40.832V32.3266C2.91663 29.0113 4.79038 25.9807 7.75625 24.499L7.86828 24.4431L10.3365 15.9914Z" fill="#35383F"/>
<path d="M15.75 38.4987C17.3608 38.4987 18.6666 37.1929 18.6666 35.582C18.6666 33.9712 17.3608 32.6654 15.75 32.6654C14.1391 32.6654 12.8333 33.9712 12.8333 35.582C12.8333 37.1929 14.1391 38.4987 15.75 38.4987Z" fill="#35383F"/>
<path d="M40.25 38.4987C41.8608 38.4987 43.1666 37.1929 43.1666 35.582C43.1666 33.9712 41.8608 32.6654 40.25 32.6654C38.6391 32.6654 37.3333 33.9712 37.3333 35.582C37.3333 37.1929 38.6391 38.4987 40.25 38.4987Z" fill="#35383F"/>
<path d="M20.4403 6.70694C20.7212 5.30242 21.9112 4.08203 23.523 4.08203H32.4769C34.0887 4.08203 35.2787 5.30242 35.5596 6.70694L36.716 12.4888C36.8188 13.0029 36.6857 13.5361 36.3533 13.9415C36.0209 14.347 35.5242 14.582 35 14.582H21C20.4757 14.582 19.979 14.347 19.6466 13.9415C19.3142 13.5361 19.1811 13.0029 19.2839 12.4888L20.4403 6.70694ZM23.8346 7.58203L23.1346 11.082H32.8653L32.1653 7.58203H23.8346Z" fill="#35383F"/>
<path d="M15.75 26.832C15.75 25.8655 16.5335 25.082 17.5 25.082H38.5C39.4665 25.082 40.25 25.8655 40.25 26.832C40.25 27.7985 39.4665 28.582 38.5 28.582H17.5C16.5335 28.582 15.75 27.7985 15.75 26.832Z" fill="#35383F"/>
</svg>
