<svg width="24" height="39" viewBox="0 0 24 39" fill="none" xmlns="http://www.w3.org/2000/svg">
<path d="M13 4.81818V33.9091H11.1364V4.81818H13ZM21.5455 15H18.7273C18.5606 14.1894 18.2689 13.4773 17.8523 12.8636C17.4432 12.25 16.9432 11.7348 16.3523 11.3182C15.7689 10.8939 15.1212 10.5758 14.4091 10.3636C13.697 10.1515 12.9545 10.0455 12.1818 10.0455C10.7727 10.0455 9.49621 10.4015 8.35227 11.1136C7.21591 11.8258 6.31061 12.875 5.63636 14.2614C4.9697 15.6477 4.63636 17.3485 4.63636 19.3636C4.63636 21.3788 4.9697 23.0795 5.63636 24.4659C6.31061 25.8523 7.21591 26.9015 8.35227 27.6136C9.49621 28.3258 10.7727 28.6818 12.1818 28.6818C12.9545 28.6818 13.697 28.5758 14.4091 28.3636C15.1212 28.1515 15.7689 27.8371 16.3523 27.4205C16.9432 26.9962 17.4432 26.4773 17.8523 25.8636C18.2689 25.2424 18.5606 24.5303 18.7273 23.7273H21.5455C21.3333 24.9167 20.947 25.9811 20.3864 26.9205C19.8258 27.8598 19.1288 28.6591 18.2955 29.3182C17.4621 29.9697 16.5265 30.4659 15.4886 30.8068C14.4583 31.1477 13.3561 31.3182 12.1818 31.3182C10.197 31.3182 8.43182 30.8333 6.88636 29.8636C5.34091 28.8939 4.125 27.5152 3.23864 25.7273C2.35227 23.9394 1.90909 21.8182 1.90909 19.3636C1.90909 16.9091 2.35227 14.7879 3.23864 13C4.125 11.2121 5.34091 9.83333 6.88636 8.86364C8.43182 7.89394 10.197 7.40909 12.1818 7.40909C13.3561 7.40909 14.4583 7.57954 15.4886 7.92045C16.5265 8.26136 17.4621 8.76136 18.2955 9.42045C19.1288 10.072 19.8258 10.8674 20.3864 11.8068C20.947 12.7386 21.3333 13.803 21.5455 15Z" fill="black"/>
</svg>
