<svg width="24" height="39" viewBox="0 0 24 39" fill="none" xmlns="http://www.w3.org/2000/svg">
<path d="M13.3409 4.81818V33.9091H10.8977V4.81818H13.3409ZM21.8864 15.2955H18.3409C18.2045 14.5379 17.9508 13.8712 17.5795 13.2955C17.2083 12.7197 16.7538 12.2311 16.2159 11.8295C15.678 11.428 15.0758 11.125 14.4091 10.9205C13.75 10.7159 13.0492 10.6136 12.3068 10.6136C10.9659 10.6136 9.76515 10.9508 8.70455 11.625C7.65152 12.2992 6.81818 13.2879 6.20455 14.5909C5.59848 15.8939 5.29545 17.4848 5.29545 19.3636C5.29545 21.2576 5.59848 22.8561 6.20455 24.1591C6.81818 25.4621 7.6553 26.447 8.71591 27.1136C9.77652 27.7803 10.9697 28.1136 12.2955 28.1136C13.0303 28.1136 13.7273 28.0152 14.3864 27.8182C15.053 27.6136 15.6553 27.3144 16.1932 26.9205C16.7311 26.5265 17.1856 26.0455 17.5568 25.4773C17.9356 24.9015 18.197 24.2424 18.3409 23.5L21.8864 23.5114C21.697 24.6553 21.3295 25.7083 20.7841 26.6705C20.2462 27.625 19.553 28.4508 18.7045 29.1477C17.8636 29.8371 16.9015 30.3712 15.8182 30.75C14.7348 31.1288 13.553 31.3182 12.2727 31.3182C10.2576 31.3182 8.46212 30.8409 6.88636 29.8864C5.31061 28.9242 4.06818 27.5492 3.15909 25.7614C2.25758 23.9735 1.80682 21.8409 1.80682 19.3636C1.80682 16.8788 2.26136 14.7462 3.17045 12.9659C4.07955 11.178 5.32197 9.80682 6.89773 8.85227C8.47349 7.89015 10.2652 7.40909 12.2727 7.40909C13.5076 7.40909 14.6591 7.58712 15.7273 7.94318C16.803 8.29167 17.7689 8.80682 18.625 9.48864C19.4811 10.1629 20.1894 10.9886 20.75 11.9659C21.3106 12.9356 21.6894 14.0455 21.8864 15.2955Z" fill="black"/>
</svg>
