<svg width="22" height="30" viewBox="0 0 22 30" fill="none" xmlns="http://www.w3.org/2000/svg">
<path d="M12.6705 0.81818V29.9091H9.65909V0.81818H12.6705ZM21.2159 11.5795H16.9659C16.8447 10.8826 16.6212 10.2652 16.2955 9.72727C15.9697 9.18182 15.5644 8.7197 15.0795 8.34091C14.5947 7.96212 14.0417 7.67803 13.4205 7.48864C12.8068 7.29167 12.1439 7.19318 11.4318 7.19318C10.1667 7.19318 9.04545 7.51136 8.06818 8.14773C7.09091 8.77651 6.32576 9.70076 5.77273 10.9205C5.2197 12.1326 4.94318 13.6136 4.94318 15.3636C4.94318 17.1439 5.2197 18.6439 5.77273 19.8636C6.33333 21.0758 7.09848 21.9924 8.06818 22.6136C9.04545 23.2273 10.1629 23.5341 11.4205 23.5341C12.1174 23.5341 12.7689 23.4432 13.375 23.2614C13.9886 23.072 14.5379 22.7955 15.0227 22.4318C15.5152 22.0682 15.928 21.6212 16.2614 21.0909C16.6023 20.5606 16.8371 19.9545 16.9659 19.2727L21.2159 19.2955C21.0568 20.4015 20.7121 21.4394 20.1818 22.4091C19.6591 23.3788 18.9735 24.2348 18.125 24.9773C17.2765 25.7121 16.2841 26.2879 15.1477 26.7045C14.0114 27.1136 12.75 27.3182 11.3636 27.3182C9.31818 27.3182 7.49242 26.8447 5.88636 25.8977C4.2803 24.9508 3.01515 23.5833 2.09091 21.7955C1.16667 20.0076 0.704545 17.8636 0.704545 15.3636C0.704545 12.8561 1.17045 10.7121 2.10227 8.93182C3.03409 7.14394 4.30303 5.77651 5.90909 4.82954C7.51515 3.88257 9.33333 3.40909 11.3636 3.40909C12.6591 3.40909 13.8636 3.59091 14.9773 3.95454C16.0909 4.31818 17.0833 4.85227 17.9545 5.55682C18.8258 6.25379 19.5417 7.10985 20.1023 8.125C20.6705 9.13258 21.0417 10.2841 21.2159 11.5795Z" fill="black"/>
</svg>
