<svg width="33" height="33" viewBox="0 0 33 33" fill="none" xmlns="http://www.w3.org/2000/svg">
<path d="M31.1479 29.2476C32.1693 29.2476 33 30.0892 33 31.1238C33 32.1604 32.1693 33 31.1479 33H20.6794C19.6581 33 18.8274 32.1604 18.8274 31.1238C18.8274 30.0892 19.6581 29.2476 20.6794 29.2476H31.1479ZM23.8881 1.28162L26.5923 3.42977C27.7012 4.29692 28.4404 5.43997 28.6933 6.64215C28.9852 7.96454 28.6739 9.26329 27.7984 10.3866L11.6901 31.2178C10.9508 32.1638 9.86133 32.6959 8.69406 32.7156L2.27406 32.7944C1.92388 32.7944 1.63206 32.558 1.55424 32.2229L0.0951472 25.8967C-0.157762 24.7339 0.0951472 23.5318 0.83442 22.6055L12.2542 7.82462C12.4488 7.58812 12.799 7.55068 13.0324 7.72608L17.8377 11.5494C18.149 11.8056 18.577 11.9436 19.0244 11.8844C19.9777 11.7662 20.6197 10.899 20.5224 9.97277C20.4641 9.49978 20.2306 9.10563 19.9193 8.81001C19.8221 8.73118 15.2502 5.06552 15.2502 5.06552C14.9584 4.82903 14.9001 4.39546 15.1335 4.10181L16.9428 1.7546C18.6159 -0.393549 21.5341 -0.590628 23.8881 1.28162Z" fill="#FEBB1B"/>
</svg>
