<svg width="42" height="44" viewBox="0 0 42 44" fill="none" xmlns="http://www.w3.org/2000/svg">
<path d="M15.3144 39.5428V33.4093C15.3144 31.8493 16.5862 30.5817 18.162 30.5712H23.9342C25.5175 30.5712 26.801 31.8419 26.801 33.4093V39.5619C26.8006 40.8864 27.8685 41.969 29.2061 42H33.0542C36.8902 42 40 38.9214 40 35.1237V17.6757C39.9795 16.1817 39.271 14.7787 38.076 13.8661L24.9154 3.3706C22.6099 1.54313 19.3324 1.54313 17.0268 3.3706L3.92405 13.8851C2.72452 14.794 2.01477 16.1993 2 17.6947V35.1237C2 38.9214 5.10975 42 8.94582 42H12.7939C14.1647 42 15.2759 40.8999 15.2759 39.5428" stroke="black" stroke-width="4" stroke-linecap="round" stroke-linejoin="round"/>
</svg>
