<svg width="37" height="40" viewBox="0 0 37 40" fill="none" xmlns="http://www.w3.org/2000/svg">
<path fill-rule="evenodd" clip-rule="evenodd" d="M28.106 0C32.984 0 36.956 3.97 36.956 8.85V31.128C36.956 36.02 32.974 40 28.084 40H18.314C13.436 40 9.466 36.03 9.466 31.15V29.266C9.466 28.438 10.138 27.766 10.966 27.766C11.794 27.766 12.466 28.438 12.466 29.266V31.15C12.466 34.374 15.09 37 18.314 37H28.084C31.322 37 33.956 34.368 33.956 31.128V8.85C33.956 5.626 31.33 3 28.106 3H18.336C15.1 3 12.466 5.632 12.466 8.868V10.734C12.466 11.562 11.794 12.234 10.966 12.234C10.138 12.234 9.466 11.562 9.466 10.734V8.868C9.466 3.978 13.446 0 18.336 0H28.106ZM20.7846 13.106L26.6425 18.9395C26.69 18.987 26.7344 19.0377 26.7752 19.0912L26.6425 18.9395C26.7224 19.0182 26.7924 19.1037 26.8516 19.1969C26.8637 19.2202 26.8773 19.243 26.8904 19.2662C26.9132 19.302 26.9325 19.3401 26.9502 19.3789C26.9601 19.4064 26.9716 19.4338 26.9823 19.4615C26.9994 19.4995 27.0126 19.5386 27.0242 19.5782C27.0309 19.6094 27.039 19.6405 27.046 19.672C27.0569 19.7101 27.0639 19.7485 27.0695 19.7872C27.0695 19.8047 27.0718 19.8232 27.0737 19.8418C27.0818 19.8946 27.0846 19.9472 27.0846 20L27.07 20.158L27.0683 20.2035C27.0678 20.2068 27.0674 20.2102 27.0669 20.2136L27.0846 20C27.0846 20.111 27.0723 20.221 27.0484 20.3278C27.039 20.3595 27.0309 20.3906 27.0219 20.4213C27.0126 20.4614 26.9994 20.5005 26.9846 20.5389C26.9716 20.5662 26.9601 20.5936 26.9479 20.6206C26.9325 20.6599 26.9132 20.698 26.8923 20.7352C26.8773 20.757 26.8637 20.7798 26.8495 20.8022C26.8279 20.8403 26.8026 20.8766 26.7756 20.9117C26.7571 20.9324 26.7399 20.9536 26.7222 20.9744C26.6981 21.005 26.671 21.034 26.6426 21.062L20.7846 26.892C20.4926 27.184 20.1086 27.33 19.7266 27.33C19.3426 27.33 18.9566 27.184 18.6646 26.888C18.0786 26.3 18.0826 25.352 18.6686 24.768L21.95 21.5H1.5C0.672 21.5 0 20.828 0 20C0 19.172 0.672 18.5 1.5 18.5H21.95L18.6686 15.23C18.0826 14.646 18.0786 13.698 18.6646 13.11C19.2506 12.522 20.1986 12.522 20.7846 13.106Z" fill="black"/>
</svg>
