<svg width="106" height="106" viewBox="0 0 106 106" fill="none" xmlns="http://www.w3.org/2000/svg">
<rect x="0.5" y="75.5" width="30" height="30" fill="white" fill-opacity="0.01"/>
<path fill-rule="evenodd" clip-rule="evenodd" d="M62.625 79.25L25.875 79.25C23.942 79.25 22.375 77.683 22.375 75.75C22.375 73.817 23.942 72.25 25.875 72.25L62.625 72.25C64.558 72.25 66.125 73.817 66.125 75.75C66.125 77.683 64.558 79.25 62.625 79.25ZM22.375 33.7499C22.375 31.8169 23.942 30.2499 25.875 30.2499L83.625 30.2499C85.558 30.2499 87.125 31.8169 87.125 33.7499C87.125 35.6829 85.558 37.2499 83.625 37.2499L25.875 37.2499C23.942 37.2499 22.375 35.6829 22.375 33.7499ZM25.875 58.2499L73.125 58.2499C75.058 58.2499 76.625 56.6829 76.625 54.7499C76.625 52.8169 75.058 51.2499 73.125 51.2499L25.875 51.2499C23.942 51.2499 22.375 52.8169 22.375 54.7499C22.375 56.6829 23.942 58.2499 25.875 58.2499Z" fill="#3E4958"/>
</svg>
