<svg width="37" height="43" viewBox="0 0 37 43" fill="none" xmlns="http://www.w3.org/2000/svg">
<path fill-rule="evenodd" clip-rule="evenodd" d="M14.6485 38.212C15.6845 39.366 17.0145 40 18.3945 40H18.3965C19.7825 40 21.1185 39.366 22.1565 38.21C22.7125 37.596 23.6605 37.546 24.2745 38.1C24.8905 38.654 24.9405 39.604 24.3865 40.218C22.7705 42.012 20.6445 43 18.3965 43H18.3925C16.1505 42.998 14.0285 42.01 12.4185 40.216C11.8645 39.602 11.9145 38.652 12.5305 38.1C13.1465 37.544 14.0945 37.594 14.6485 38.212ZM18.4941 0C27.3841 0 33.3561 6.924 33.3561 13.39C33.3561 16.716 34.2021 18.126 35.1001 19.622C35.9881 21.098 36.9941 22.774 36.9941 25.942C36.2961 34.036 27.8461 34.696 18.4941 34.696C9.14205 34.696 0.690053 34.036 2.64727e-05 26.07C-0.00594682 22.774 1.00005 21.098 1.88805 19.622L2.20154 19.0943C2.9734 17.7677 3.63205 16.3247 3.63205 13.39C3.63205 6.924 9.60405 0 18.4941 0ZM18.4941 3C11.5041 3 6.63205 8.476 6.63205 13.39C6.63205 17.548 5.47805 19.47 4.45805 21.166C3.64005 22.528 2.99405 23.604 2.99405 25.942C3.32805 29.714 5.81805 31.696 18.4941 31.696C31.1001 31.696 33.6681 29.626 34.0001 25.812C33.9941 23.604 33.3481 22.528 32.5301 21.166C31.5101 19.47 30.3561 17.548 30.3561 13.39C30.3561 8.476 25.4841 3 18.4941 3Z" fill="black"/>
</svg>
