<svg width="24" height="24" viewBox="0 0 24 24" fill="none" xmlns="http://www.w3.org/2000/svg">
<path fill-rule="evenodd" clip-rule="evenodd" d="M20 19H4C2.895 19 2 18.105 2 17V7C2 5.895 2.895 5 4 5H20C21.105 5 22 5.895 22 7V17C22 18.105 21.105 19 20 19Z" stroke="#636773" stroke-width="1.5" stroke-linecap="round" stroke-linejoin="round"/>
<path d="M13.7678 10.2322C14.7441 11.2085 14.7441 12.7915 13.7678 13.7678C12.7915 14.7441 11.2085 14.7441 10.2322 13.7678C9.25592 12.7915 9.25592 11.2085 10.2322 10.2322C11.2085 9.25592 12.7915 9.25592 13.7678 10.2322" stroke="#636773" stroke-width="1.5" stroke-linecap="round" stroke-linejoin="round"/>
<path d="M17.999 11.625C17.792 11.626 17.625 11.794 17.625 12.001C17.625 12.208 17.793 12.376 18 12.375C18.207 12.375 18.375 12.207 18.375 12C18.375 11.793 18.207 11.625 17.999 11.625" stroke="#636773" stroke-width="1.5" stroke-linecap="round" stroke-linejoin="round"/>
<path d="M5.999 11.625C5.792 11.626 5.625 11.794 5.625 12.001C5.625 12.208 5.793 12.376 6 12.375C6.207 12.375 6.375 12.207 6.375 12C6.375 11.793 6.207 11.625 5.999 11.625" stroke="#636773" stroke-width="1.5" stroke-linecap="round" stroke-linejoin="round"/>
</svg>
