<svg width="34" height="40" viewBox="0 0 34 40" fill="none" xmlns="http://www.w3.org/2000/svg">
<path fill-rule="evenodd" clip-rule="evenodd" d="M16.7494 0C21.2614 0 25.2894 2.866 26.7674 7.134C27.0394 7.916 26.6234 8.77 25.8394 9.042C25.0574 9.316 24.2034 8.898 23.9314 8.114C22.8734 5.056 19.9834 3 16.7434 3H16.7154C12.5314 3 9.1234 6.388 9.1054 10.568L9.104 13.252L24.368 13.2534C29.376 13.2534 33.452 17.3294 33.452 22.3394V30.9154C33.452 35.9254 29.376 40.0014 24.368 40.0014H9.084C4.074 40.0014 0 35.9254 0 30.9154V22.3394C0 18.3726 2.55401 14.9914 6.10442 13.7552L6.1054 10.602C6.1314 4.726 10.8834 0 16.7094 0H16.7494ZM24.368 16.2534H9.084C5.728 16.2534 3 18.9834 3 22.3394V30.9154C3 34.2714 5.728 37.0014 9.084 37.0014H24.368C27.722 37.0014 30.452 34.2714 30.452 30.9154V22.3394C30.452 18.9834 27.722 16.2534 24.368 16.2534ZM16.7266 22.905C17.5546 22.905 18.2266 23.577 18.2266 24.405V28.849C18.2266 29.677 17.5546 30.349 16.7266 30.349C15.8986 30.349 15.2266 29.677 15.2266 28.849V24.405C15.2266 23.577 15.8986 22.905 16.7266 22.905Z" fill="black"/>
</svg>
