<svg width="45" height="45" viewBox="0 0 45 45" fill="none" xmlns="http://www.w3.org/2000/svg">
<path d="M22.5 4.21875C18.099 4.21875 14.5312 7.78649 14.5312 12.1875C14.5312 16.5885 18.099 20.1562 22.5 20.1562C26.901 20.1562 30.4688 16.5885 30.4688 12.1875C30.4688 7.78649 26.901 4.21875 22.5 4.21875ZM17.3438 12.1875C17.3438 9.33978 19.6523 7.03125 22.5 7.03125C25.3477 7.03125 27.6562 9.33978 27.6562 12.1875C27.6562 15.0352 25.3477 17.3438 22.5 17.3438C19.6523 17.3438 17.3438 15.0352 17.3438 12.1875ZM27.4369 24.8438C29.4846 24.8437 31.1074 24.8437 32.4155 24.9506C33.7531 25.0599 34.8849 25.2879 35.9183 25.8144C37.5941 26.6683 38.9567 28.0308 39.8106 29.7067C40.3371 30.7401 40.5651 31.8719 40.6744 33.2095C40.7813 34.5176 40.7813 36.1403 40.7812 38.1881V39.375C40.7812 40.1516 40.1516 40.7812 39.375 40.7812H5.625C4.84835 40.7812 4.21875 40.1516 4.21875 39.375V38.1881C4.21874 36.1404 4.21873 34.5176 4.3256 33.2095C4.43489 31.8719 4.66291 30.7401 5.18948 29.7067C6.04333 28.0309 7.40581 26.6683 9.08167 25.8144C10.1151 25.2879 11.2469 25.0599 12.5845 24.9506C13.8926 24.8437 15.5154 24.8437 17.5631 24.8438H27.4369ZM7.69543 30.9835C7.40455 31.5544 7.22384 32.2749 7.12876 33.4385C7.03666 34.5659 7.03154 35.9924 7.03127 37.9688H37.9687C37.9685 35.9924 37.9633 34.5659 37.8712 33.4385C37.7762 32.2749 37.5955 31.5544 37.3046 30.9835C36.7204 29.8369 35.7881 28.9046 34.6415 28.3204C34.0706 28.0295 33.3501 27.8488 32.1865 27.7538C31.0064 27.6573 29.4984 27.6562 27.375 27.6562H17.625C15.5016 27.6562 13.9936 27.6573 12.8135 27.7538C11.6499 27.8488 10.9294 28.0295 10.3585 28.3204C9.21188 28.9046 8.27966 29.8369 7.69543 30.9835Z" fill="#1C1B1F"/>
</svg>
