<svg width="53" height="53" viewBox="0 0 53 53" fill="none" xmlns="http://www.w3.org/2000/svg">
<path fill-rule="evenodd" clip-rule="evenodd" d="M31.4674 12.1458C31.4674 8.18204 34.6808 4.96875 38.6445 4.96875C42.6083 4.96875 45.8216 8.18204 45.8216 12.1458C45.8216 16.1096 42.6083 19.3229 38.6445 19.3229C34.6808 19.3229 31.4674 16.1096 31.4674 12.1458ZM38.6445 8.28125C36.5102 8.28125 34.7799 10.0115 34.7799 12.1458C34.7799 14.2802 36.5102 16.0104 38.6445 16.0104C40.7789 16.0104 42.5091 14.2802 42.5091 12.1458C42.5091 10.0115 40.7789 8.28125 38.6445 8.28125Z" fill="#1C1B1F"/>
<path fill-rule="evenodd" clip-rule="evenodd" d="M7.17578 26.5C7.17578 22.5362 10.3891 19.3229 14.3529 19.3229C18.3166 19.3229 21.5299 22.5362 21.5299 26.5C21.5299 30.4638 18.3166 33.6771 14.3529 33.6771C10.3891 33.6771 7.17578 30.4638 7.17578 26.5ZM14.3529 22.6354C12.2185 22.6354 10.4883 24.3657 10.4883 26.5C10.4883 28.6343 12.2185 30.3646 14.3529 30.3646C16.4872 30.3646 18.2174 28.6343 18.2174 26.5C18.2174 24.3657 16.4872 22.6354 14.3529 22.6354Z" fill="#1C1B1F"/>
<path fill-rule="evenodd" clip-rule="evenodd" d="M34.5405 14.1302C35.0144 14.9125 34.7645 15.931 33.9821 16.405L20.0022 24.8749C19.2198 25.3489 18.2014 25.099 17.7274 24.3166C17.2534 23.5343 17.5034 22.5158 18.2857 22.0418L32.2657 13.5719C33.048 13.0979 34.0665 13.3479 34.5405 14.1302Z" fill="#1C1B1F"/>
<path fill-rule="evenodd" clip-rule="evenodd" d="M17.7181 28.4884C18.1834 27.7009 19.199 27.4398 19.9865 27.9051L34.7166 36.6093C35.5041 37.0746 35.7652 38.0903 35.2999 38.8778C34.8345 39.6653 33.8189 39.9264 33.0314 39.4611L18.3014 30.7569C17.5139 30.2916 17.2527 29.276 17.7181 28.4884Z" fill="#1C1B1F"/>
<path fill-rule="evenodd" clip-rule="evenodd" d="M38.6445 36.9896C36.5102 36.9896 34.7799 38.7198 34.7799 40.8542C34.7799 42.9885 36.5102 44.7187 38.6445 44.7187C40.7789 44.7187 42.5091 42.9885 42.5091 40.8542C42.5091 38.7198 40.7789 36.9896 38.6445 36.9896ZM31.4674 40.8542C31.4674 36.8904 34.6808 33.6771 38.6445 33.6771C42.6083 33.6771 45.8216 36.8904 45.8216 40.8542C45.8216 44.8179 42.6083 48.0312 38.6445 48.0312C34.6808 48.0312 31.4674 44.8179 31.4674 40.8542Z" fill="#1C1B1F"/>
</svg>
