<svg width="70" height="70" viewBox="0 0 70 70" fill="none" xmlns="http://www.w3.org/2000/svg">
<path d="M3.646 30.6252C3.646 15.725 15.725 3.646 30.6252 3.646C45.5253 3.646 57.6043 15.725 57.6043 30.6252C57.6043 45.5253 45.5253 57.6043 30.6252 57.6043C15.725 57.6043 3.646 45.5253 3.646 30.6252ZM30.6252 8.021C18.1413 8.021 8.021 18.1413 8.021 30.6252C8.021 43.109 18.1413 53.2293 30.6252 53.2293C43.109 53.2293 53.2293 43.109 53.2293 30.6252C53.2293 18.1413 43.109 8.021 30.6252 8.021Z" fill="#201F25"/>
<path d="M20.8288 19.3703C23.3336 16.8657 26.8001 15.3127 30.6252 15.3127C34.4502 15.3127 37.9168 16.8657 40.4215 19.3704C41.2757 20.2247 41.2757 21.6097 40.4215 22.464C39.5672 23.3183 38.1821 23.3183 37.3279 22.464C35.6101 20.7462 33.2433 19.6877 30.6252 19.6877C28.007 19.6877 25.6402 20.7462 23.9223 22.464C23.068 23.3183 21.6829 23.3182 20.8287 22.4639C19.9744 21.6096 19.9745 20.2246 20.8288 19.3703Z" fill="#201F25"/>
<path d="M46.9018 46.9018C47.7561 46.0476 49.1411 46.0476 49.9954 46.9018L62.3698 59.2762C63.2241 60.1305 63.2241 61.5155 62.3698 62.3698C61.5155 63.2241 60.1305 63.2241 59.2762 62.3698L46.9018 49.9954C46.0476 49.1411 46.0476 47.7561 46.9018 46.9018Z" fill="#201F25"/>
</svg>
