<svg width="40" height="38" viewBox="0 0 40 38" fill="none" xmlns="http://www.w3.org/2000/svg">
<path d="M18.4602 9.58104L18.4602 1.56301C18.4602 0.710459 19.1402 0 20.0002 0C20.8402 0 21.5402 0.710459 21.5402 1.56301L21.5402 9.58104L31.1 9.58165C36 9.58165 40 13.7122 40 18.7722V28.8508C40 33.8901 36 38 31.12 38L8.88 38C3.98 38 0 33.8901 0 28.8095V18.7515C0 13.7122 3.98 9.58165 8.86 9.58165L18.4602 9.58104L18.46 22.3864L15.26 19.082C14.66 18.4624 13.68 18.4624 13.08 19.082C12.78 19.3918 12.64 19.8048 12.64 20.2179C12.64 20.6103 12.78 21.0233 13.08 21.3331L18.9 27.3638C19.18 27.6736 19.58 27.8388 20 27.8388C20.4 27.8388 20.8 27.6736 21.08 27.3638L26.9 21.3331C27.5 20.7135 27.5 19.7016 26.9 19.082C26.3 18.4624 25.32 18.4624 24.72 19.082L21.54 22.3864L21.5402 9.58104H18.4602Z" fill="black"/>
</svg>
