<svg width="104" height="104" viewBox="0 0 104 104" fill="none" xmlns="http://www.w3.org/2000/svg">
<rect width="104" height="104" rx="52" fill="#FFEEC7"/>
<rect x="13" y="13" width="78" height="78" rx="39" fill="#FEBE24"/>
<path d="M60.128 36C66.336 36 70 39.5723 70 45.6872H62.384V45.7496C58.8494 45.7496 55.984 48.5433 55.984 51.9894C55.984 55.4355 58.8494 58.2292 62.384 58.2292H70V58.7908C70 64.8277 66.336 68.4 60.128 68.4H43.872C37.664 68.4 34 64.8277 34 58.7908V45.6092C34 39.5723 37.664 36 43.872 36H60.128ZM68.656 48.3703C69.3983 48.3703 70 48.957 70 49.6807V54.2357C69.9914 54.9559 69.3947 55.5377 68.656 55.5461H62.528C60.7386 55.5696 59.1739 54.3751 58.768 52.6758C58.5647 51.6209 58.8501 50.5324 59.5475 49.702C60.245 48.8716 61.2832 48.3841 62.384 48.3703H68.656ZM63.248 50.4763H62.656C62.2925 50.4721 61.9425 50.61 61.684 50.8591C61.4255 51.1082 61.28 51.4478 61.28 51.8022C61.2799 52.5457 61.8935 53.1508 62.656 53.1594H63.248C64.0079 53.1594 64.624 52.5587 64.624 51.8178C64.624 51.0769 64.0079 50.4763 63.248 50.4763ZM52.688 43.0041H42.528C41.7743 43.0041 41.1608 43.5953 41.152 44.3301C41.152 45.0736 41.7655 45.6787 42.528 45.6872H52.688C53.4479 45.6872 54.064 45.0866 54.064 44.3457C54.064 43.6048 53.4479 43.0041 52.688 43.0041Z" fill="#35383F"/>
</svg>
