<svg width="40" height="40" viewBox="0 0 40 40" fill="none" xmlns="http://www.w3.org/2000/svg">
<path fill-rule="evenodd" clip-rule="evenodd" d="M28.668 0C35.446 0 40 4.756 40 11.832V28.168C40 35.244 35.446 40 28.666 40H11.33C4.552 40 0 35.244 0 28.168V11.832C0 4.756 4.552 0 11.33 0H28.668ZM28.668 3H11.33C6.27 3 3 6.466 3 11.832V28.168C3 33.534 6.27 37 11.33 37H28.666C33.728 37 37 33.534 37 28.168V11.832C37 6.466 33.73 3 28.668 3ZM19.9982 9.7672C20.8262 9.7672 21.4982 10.4392 21.4982 11.2672V19.1392L27.5502 22.7452C28.2602 23.1712 28.4942 24.0912 28.0702 24.8032C27.7882 25.2732 27.2902 25.5352 26.7802 25.5352C26.5182 25.5352 26.2542 25.4672 26.0122 25.3252L19.2302 21.2792C18.7782 21.0072 18.4982 20.5172 18.4982 19.9912V11.2672C18.4982 10.4392 19.1702 9.7672 19.9982 9.7672Z" fill="black"/>
</svg>
