<svg width="68" height="61" viewBox="0 0 68 61" fill="none" xmlns="http://www.w3.org/2000/svg">
<path d="M48.7825 0C60.3656 0 67.2104 6.65038 67.2104 17.9412V18.0664H52.9771C46.3535 18.0781 40.9877 23.3098 40.9757 29.7679C40.9668 36.2406 46.3386 41.4957 52.9771 41.5044H67.2223V42.5327C67.2223 53.8235 60.3776 60.5001 48.7944 60.5001H18.4309C6.84473 60.5001 0 53.8235 0 42.5327V17.9412C0 6.65038 6.84473 0 18.4309 0H48.7825ZM34.8988 13.024H15.9302C14.52 13.0298 13.3757 14.1455 13.3697 15.5234C13.3638 16.907 14.5111 18.0344 15.9302 18.0402H34.9227C36.3419 18.0344 37.4891 16.907 37.4832 15.5205C37.4772 14.1368 36.318 13.0182 34.8988 13.024Z" fill="url(#paint0_radial_727_323)"/>
<path opacity="0.79" d="M47.1824 31.2488C47.8853 34.4459 50.6883 36.6952 53.8884 36.6367H64.8118C66.1433 36.6367 67.2233 35.534 67.2233 34.1709V25.6621C67.2205 24.3019 66.1433 23.1963 64.8118 23.1934H53.6313C49.9911 23.2051 47.0509 26.2266 47.0566 29.9501C47.0566 30.386 47.0995 30.8218 47.1824 31.2488Z" fill="#222222"/>
<path d="M53.7771 33.2769C55.6334 33.2769 57.1382 31.7721 57.1382 29.9158C57.1382 28.0595 55.6334 26.5547 53.7771 26.5547C51.9208 26.5547 50.416 28.0595 50.416 29.9158C50.416 31.7721 51.9208 33.2769 53.7771 33.2769Z" fill="white"/>
<defs>
<radialGradient id="paint0_radial_727_323" cx="0" cy="0" r="1" gradientUnits="userSpaceOnUse" gradientTransform="translate(33.6111 30.25) rotate(90) scale(30.25 33.6111)">
<stop stop-color="#FFBF08"/>
<stop offset="1" stop-color="#FFA401"/>
</radialGradient>
</defs>
</svg>
