<svg width="21" height="21" viewBox="0 0 21 21" fill="none" xmlns="http://www.w3.org/2000/svg">
<g clip-path="url(#clip0_90_74)">
<path d="M10.5 21C16.2988 21 21 16.2988 21 10.5C21 4.70121 16.2988 0 10.5 0C4.70121 0 0 4.70121 0 10.5C0 16.2988 4.70121 21 10.5 21ZM13.9367 19.2934C14.9593 18.1811 15.7692 16.5812 16.2645 14.7H18.9595C17.9165 16.786 16.1245 18.4355 13.9367 19.2934ZM19.95 10.5C19.95 11.6074 19.7418 12.6626 19.3896 13.65H16.4983C16.6873 12.6536 16.8 11.6007 16.8 10.5C16.8 9.39926 16.6873 8.34643 16.4987 7.35H19.3896C19.7418 8.33737 19.95 9.39258 19.95 10.5ZM18.9595 6.3H16.2645C15.7689 4.41874 14.9593 2.81892 13.9367 1.70662C16.1245 2.56446 17.9165 4.21399 18.9595 6.3ZM11.025 1.09971C12.8219 1.43817 14.3832 3.48846 15.1823 6.3H11.025V1.09971ZM11.025 7.35H15.4325C15.6345 8.34118 15.75 9.40066 15.75 10.5C15.75 11.5993 15.6345 12.6588 15.4325 13.65H11.025V7.35ZM11.025 14.7H15.1823C14.3832 17.5115 12.8219 19.5619 11.025 19.9003V14.7ZM2.04049 14.7H4.7355C5.23109 16.5813 6.04066 18.1811 7.06334 19.2934C4.87549 18.4355 3.08351 16.786 2.04049 14.7ZM9.975 19.9003C8.17811 19.5618 6.61676 17.5115 5.8177 14.7H9.975V19.9003ZM9.975 13.65H5.56746C5.3655 12.6588 5.25 11.5993 5.25 10.5C5.25 9.40066 5.3655 8.34118 5.56746 7.35H9.975V13.65ZM9.975 1.09971V6.3H5.8177C6.61676 3.48846 8.17811 1.43813 9.975 1.09971ZM7.06334 1.70662C6.04066 2.81925 5.23109 4.41878 4.7355 6.3H2.04049C3.08351 4.21399 4.87549 2.56446 7.06334 1.70662ZM4.50171 7.35C4.31271 8.34643 4.2 9.39926 4.2 10.5C4.2 11.6007 4.31271 12.6536 4.50134 13.65H1.60999C1.25824 12.6626 1.05 11.6074 1.05 10.5C1.05 9.39258 1.25824 8.33737 1.61036 7.35H4.50171Z" fill="#FEBB1B"/>
</g>
<defs>
<clipPath id="clip0_90_74">
<rect width="21" height="21" fill="white" transform="matrix(-1 0 0 -1 21 21)"/>
</clipPath>
</defs>
</svg>
