<svg width="23" height="23" viewBox="0 0 23 23" fill="none" xmlns="http://www.w3.org/2000/svg">
<path d="M0.0545654 23L1.67127 17.0938C0.673649 15.365 0.14944 13.4052 0.150399 11.3955C0.153274 5.11271 5.26598 0 11.5479 0C14.5963 0.000958333 17.4579 1.18833 19.6103 3.34267C21.7618 5.497 22.9463 8.3605 22.9453 11.4061C22.9424 17.6899 17.8297 22.8026 11.5479 22.8026C9.64077 22.8016 7.76148 22.3234 6.09686 21.4149L0.0545654 23ZM6.37669 19.3516C7.98286 20.3052 9.51619 20.8763 11.544 20.8773C16.765 20.8773 21.0181 16.628 21.021 11.4042C21.0229 6.16975 16.7899 1.92625 11.5517 1.92433C6.32686 1.92433 2.07665 6.17358 2.07473 11.3965C2.07377 13.5288 2.69861 15.1254 3.74798 16.7957L2.79061 20.2917L6.37669 19.3516ZM17.2892 14.1153C17.2183 13.9965 17.0286 13.9255 16.743 13.7827C16.4584 13.64 15.0582 12.9509 14.7966 12.856C14.5359 12.7612 14.3462 12.7132 14.1555 12.9988C13.9657 13.2835 13.4195 13.9255 13.2537 14.1153C13.0879 14.305 12.9211 14.329 12.6365 14.1862C12.3519 14.0434 11.4338 13.7435 10.3461 12.7727C9.4999 12.0175 8.92777 11.085 8.76198 10.7995C8.59619 10.5148 8.74473 10.3605 8.88656 10.2187C9.01498 10.0912 9.17119 9.88617 9.31398 9.71942C9.45869 9.55458 9.50565 9.43575 9.60148 9.24504C9.69636 9.05529 9.6494 8.88854 9.57752 8.74575C9.50565 8.60392 8.9364 7.20187 8.69969 6.63167C8.46777 6.07679 8.23298 6.15154 8.05857 6.14292L7.51232 6.13333C7.32257 6.13333 7.01398 6.20425 6.75332 6.48983C6.49265 6.77542 5.75665 7.4635 5.75665 8.86554C5.75665 10.2676 6.77727 11.6217 6.91911 11.8115C7.0619 12.0012 8.92681 14.8781 11.7836 16.1115C12.4631 16.4047 12.994 16.5801 13.407 16.7114C14.0894 16.928 14.7104 16.8973 15.201 16.8245C15.7482 16.743 16.8858 16.1355 17.1234 15.4704C17.3611 14.8043 17.3611 14.2341 17.2892 14.1153Z" fill="#FEBB1B"/>
</svg>
