<svg width="45" height="44" viewBox="0 0 45 44" fill="none" xmlns="http://www.w3.org/2000/svg">
<path fill-rule="evenodd" clip-rule="evenodd" d="M42.9582 28.3861C43.8787 28.4552 44.5675 29.2599 44.4984 30.1804L44.0749 35.7729C43.7249 40.3868 39.8309 44 35.2058 44H9.34984C4.72474 44 0.830735 40.3868 0.480788 35.7729L0.0572844 30.1804C-0.0118135 29.2599 0.679166 28.4552 1.59973 28.3861C2.52475 28.3527 3.32272 29.0057 3.39405 29.9285L3.81532 35.5188C4.03376 38.3986 6.46333 40.6566 9.34984 40.6566H35.2058C38.0923 40.6566 40.5242 38.3986 40.7404 35.5188L41.1639 29.9285C41.2352 29.0057 42.0532 28.3504 42.9582 28.3861ZM25.1536 0C28.5036 0 31.279 2.5104 31.697 5.74856L36.0869 5.75051C40.7589 5.75051 44.557 9.55981 44.557 14.2451V21.9105C44.557 22.5056 44.2405 23.054 43.7301 23.3526C38.2283 26.5746 31.2588 28.4539 23.9492 28.7046L23.95 32.7136C23.95 33.6364 23.2011 34.3854 22.2783 34.3854C21.3555 34.3854 20.6066 33.6364 20.6066 32.7136L20.6051 28.7051C13.3029 28.4567 6.33284 26.577 0.826946 23.3526C0.314284 23.054 0 22.5056 0 21.9105V14.2228C0 9.55089 3.8093 5.75051 8.49236 5.75051L12.8596 5.74856C13.2776 2.5104 16.0529 0 19.4029 0H25.1536ZM36.0869 9.09395H8.49236C5.65266 9.09395 3.34345 11.3942 3.34345 14.2228V20.9364C8.63437 23.8113 15.3046 25.3869 22.2473 25.3899L22.2783 25.387L22.303 25.3879L23.3644 25.3769C29.9305 25.2204 36.1942 23.6626 41.2136 20.9364V14.2451C41.2136 11.4032 38.9155 9.09395 36.0869 9.09395ZM25.1536 3.34345H19.4029C17.9021 3.34345 16.6351 4.36492 16.2609 5.74912H28.2957C27.9214 4.36492 26.6545 3.34345 25.1536 3.34345Z" fill="black"/>
</svg>
