<svg width="76" height="76" viewBox="0 0 76 76" fill="none" xmlns="http://www.w3.org/2000/svg">
<path d="M15.7373 15.7376C16.6648 14.8101 18.1685 14.8101 19.096 15.7376L59.4012 56.0426C60.3287 56.9701 60.3287 58.4739 59.4012 59.4014C58.4737 60.3289 56.97 60.3289 56.0425 59.4014L15.7373 19.0964C14.8098 18.1689 14.8098 16.6651 15.7373 15.7376Z" fill="#727176"/>
<path d="M15.0415 17.417C15.0415 16.1053 16.1048 15.042 17.4165 15.042H45.9165C47.2282 15.042 48.2915 16.1053 48.2915 17.417C48.2915 18.7287 47.2282 19.792 45.9165 19.792H19.7915V45.917C19.7915 47.2287 18.7282 48.292 17.4165 48.292C16.1048 48.292 15.0415 47.2287 15.0415 45.917V17.417Z" fill="#727176"/>
</svg>
