<svg width="54" height="71" viewBox="0 0 54 71" fill="none" xmlns="http://www.w3.org/2000/svg">
<path d="M0 27.2444C0 12.1977 12.0883 0 27 0C41.9117 0 54 12.1977 54 27.2444C54 38.8547 47.4105 49.7388 41.1793 57.4934C38.026 61.4176 34.8787 64.6458 32.5206 66.893C31.34 68.0181 30.3533 68.9011 29.6572 69.5065C29.309 69.8093 29.0333 70.0429 28.8421 70.2029C28.7464 70.2828 28.6719 70.3444 28.6199 70.3871L28.5591 70.4368L28.5418 70.4509L28.5364 70.4553C28.5364 70.4553 28.5333 70.4578 27 68.5237C25.4667 70.4578 25.4654 70.4567 25.4654 70.4567L25.4582 70.4509L25.4409 70.4368L25.3801 70.3871C25.3281 70.3444 25.2536 70.2828 25.1579 70.2029C24.9667 70.0429 24.691 69.8093 24.3428 69.5065C23.6467 68.9011 22.66 68.0181 21.4794 66.893C19.1213 64.6458 15.974 61.4176 12.8207 57.4934C6.58953 49.7388 0 38.8547 0 27.2444ZM27 68.5237L25.4654 70.4567C26.3618 71.1804 27.6369 71.1814 28.5333 70.4578L27 68.5237ZM27 65.2727C27.5851 64.7527 28.3148 64.0876 29.1499 63.2918C31.394 61.1531 34.3831 58.0861 37.3661 54.3737C43.4077 46.855 49.0909 37.0993 49.0909 27.2444C49.0909 14.9334 39.2005 4.95352 27 4.95352C14.7995 4.95352 4.90909 14.9334 4.90909 27.2444C4.90909 37.0993 10.5923 46.855 16.6339 54.3737C19.6169 58.0861 22.606 61.1531 24.8501 63.2918C25.6852 64.0876 26.4149 64.7527 27 65.2727Z" fill="#636773"/>
<path d="M14.7273 27.2444C14.7273 20.405 20.222 14.8606 27 14.8606C33.778 14.8606 39.2727 20.405 39.2727 27.2444C39.2727 34.0838 33.778 39.6282 27 39.6282C20.222 39.6282 14.7273 34.0838 14.7273 27.2444ZM27 19.8141C22.9332 19.8141 19.6364 23.1408 19.6364 27.2444C19.6364 31.348 22.9332 34.6747 27 34.6747C31.0668 34.6747 34.3636 31.348 34.3636 27.2444C34.3636 23.1408 31.0668 19.8141 27 19.8141Z" fill="#636773"/>
</svg>
