<svg width="60" height="211" viewBox="0 0 60 211" fill="none" xmlns="http://www.w3.org/2000/svg">
<circle cx="30" cy="30" r="30" fill="url(#paint0_linear_1172_2546)"/>
<circle cx="30.002" cy="29.9961" r="10" fill="white"/>
<path d="M29.4788 147C44.5639 147 57 158.897 57 173.617C57 181.034 54.2727 187.92 49.7837 193.757C44.8314 200.195 38.7276 205.805 31.857 210.208C30.2846 211.225 28.8655 211.302 27.1397 210.208C20.23 205.805 14.1262 200.195 9.21632 193.757C4.72406 187.92 2 181.034 2 173.617C2 158.897 14.4361 147 29.4788 147ZM29.4788 165.486C24.4907 165.486 20.4225 169.553 20.4225 174.446C20.4225 179.377 24.4907 183.255 29.4788 183.255C34.4702 183.255 38.5775 179.377 38.5775 174.446C38.5775 169.553 34.4702 165.486 29.4788 165.486Z" fill="#FF9308"/>
<line x1="31.8984" y1="71.0088" x2="31.5183" y2="136.008" stroke="#D7D7D7" stroke-width="3" stroke-dasharray="20 20"/>
<defs>
<linearGradient id="paint0_linear_1172_2546" x1="30" y1="0" x2="30" y2="60" gradientUnits="userSpaceOnUse">
<stop stop-color="#FFBF08"/>
<stop offset="1" stop-color="#FABC23"/>
</linearGradient>
</defs>
</svg>
