<svg width="55" height="140" viewBox="0 0 55 140" fill="none" xmlns="http://www.w3.org/2000/svg">
<path d="M27.4788 76C42.5639 76 55 87.8973 55 102.617C55 110.034 52.2727 116.92 47.7837 122.757C42.8314 129.195 36.7276 134.805 29.857 139.208C28.2846 140.225 26.8655 140.302 25.1397 139.208C18.23 134.805 12.1262 129.195 7.21632 122.757C2.72406 116.92 0 110.034 0 102.617C0 87.8973 12.4361 76 27.4788 76ZM27.4788 94.4859C22.4907 94.4859 18.4225 98.5529 18.4225 103.446C18.4225 108.377 22.4907 112.255 27.4788 112.255C32.4702 112.255 36.5775 108.377 36.5775 103.446C36.5775 98.5529 32.4702 94.4859 27.4788 94.4859Z" fill="#FF9308"/>
<line x1="29.8984" y1="0.00877178" x2="29.5183" y2="65.0077" stroke="#D7D7D7" stroke-width="3" stroke-dasharray="20 20"/>
</svg>
