<svg width="47" height="56" viewBox="0 0 47 56" fill="none" xmlns="http://www.w3.org/2000/svg">
<path d="M23.4819 0C36.3728 0 47 10.2789 47 22.9961C47 29.4046 44.6694 35.354 40.8333 40.3967C36.6014 45.9591 31.3854 50.8055 25.5142 54.6096C24.1705 55.4888 22.9578 55.5551 21.483 54.6096C15.5784 50.8055 10.3624 45.9591 6.16668 40.3967C2.32784 35.354 0 29.4046 0 22.9961C0 10.2789 10.6272 0 23.4819 0ZM23.4819 15.9712C19.2193 15.9712 15.7429 19.4851 15.7429 23.7122C15.7429 27.9725 19.2193 31.3232 23.4819 31.3232C27.7473 31.3232 31.2571 27.9725 31.2571 23.7122C31.2571 19.4851 27.7473 15.9712 23.4819 15.9712Z" fill="#FF9308"/>
</svg>
